<svg xmlns="http://www.w3.org/2000/svg" xmlns:xlink="http://www.w3.org/1999/xlink" width="1080" zoomAndPan="magnify" viewBox="0 0 810 299.999988" height="400" preserveAspectRatio="xMidYMid meet" version="1.0"><defs><clipPath id="6a87426b93"><path d="M 9.433594 11.75 L 296.5 11.75 L 296.5 287.902344 L 9.433594 287.902344 Z M 9.433594 11.75 " clip-rule="nonzero"/></clipPath><clipPath id="798fbcc37f"><path d="M 296.5 287.902344 L 147.523438 287.902344 C 71.253906 287.902344 9.433594 226.085938 9.433594 149.828125 C 9.433594 73.570312 71.253906 11.75 147.519531 11.75 L 296.5 11.75 Z M 296.5 287.902344 " clip-rule="nonzero"/></clipPath><clipPath id="6acd4e2603"><path d="M 292.671875 11.75 L 509.925781 11.75 L 509.925781 287.902344 L 292.671875 287.902344 Z M 292.671875 11.75 " clip-rule="nonzero"/></clipPath><clipPath id="723e355501"><path d="M 504.171875 11.738281 L 791.238281 11.738281 L 791.238281 287.890625 L 504.171875 287.890625 Z M 504.171875 11.738281 " clip-rule="nonzero"/></clipPath><clipPath id="d97d1f63e7"><path d="M 504.171875 11.738281 L 653.148438 11.738281 C 729.414062 11.738281 791.238281 73.554688 791.238281 149.8125 C 791.238281 226.070312 729.414062 287.890625 653.152344 287.890625 L 504.171875 287.890625 Z M 504.171875 11.738281 " clip-rule="nonzero"/></clipPath></defs><g clip-path="url(#6a87426b93)"><g clip-path="url(#798fbcc37f)"><path fill="#5368df" d="M 296.5 11.75 L 296.5 287.902344 L 9.433594 287.902344 L 9.433594 11.75 Z M 296.5 11.75 " fill-opacity="1" fill-rule="nonzero"/></g></g><g clip-path="url(#6acd4e2603)"><path fill="#5368df" d="M 292.671875 11.75 L 509.925781 11.75 L 509.925781 287.902344 L 292.671875 287.902344 Z M 292.671875 11.75 " fill-opacity="1" fill-rule="nonzero"/></g><g clip-path="url(#723e355501)"><g clip-path="url(#d97d1f63e7)"><path fill="#5368df" d="M 504.171875 287.890625 L 504.171875 11.738281 L 791.238281 11.738281 L 791.238281 287.890625 Z M 504.171875 287.890625 " fill-opacity="1" fill-rule="nonzero"/></g></g></svg>